<svg width="200" height="30" viewBox="0 0 200 30" fill="none" xmlns="http://www.w3.org/2000/svg">
<g clip-path="url(#clip0_1018_20360)">
<path d="M53.3126 5.74429L54.7067 5.16409C54.7067 5.16409 52.1736 3.87241 51.6016 2.25781C51.6041 2.26044 51.9829 4.9068 53.3126 5.74429Z" fill="#2178D4"/>
<path d="M66.1486 23.3581C62.1648 18.2124 54.3285 13.752 54.3285 13.752C55.5963 17.4301 53.5039 29.3098 53.5039 29.3098L56.0292 29.3886C56.0292 29.3886 58.0031 24.2744 61.1083 24.2744C64.2134 24.2744 65.9245 29.3098 65.9245 29.3098H68.5219L68.1792 27.9578C67.9937 27.2279 67.7721 26.506 67.5015 25.8024C67.1227 24.8178 66.7645 24.1536 66.1486 23.3581Z" fill="#2178D4"/>
<path d="M53.8849 16.5322L50.4061 17.7241C49.6382 17.9867 48.8986 18.3332 48.2183 18.7795C47.9426 18.9607 47.6386 19.2232 47.3293 19.5383C46.0512 20.8404 45.224 22.5338 44.8942 24.3453L44 29.3072L46.345 29.2416C47.6128 25.6265 53.1247 25.5608 53.1247 25.5608C53.7689 21.8538 53.8849 16.5322 53.8849 16.5322Z" fill="#2178D4"/>
<path d="M54.7069 13.0398C54.7069 13.0398 62.8163 16.332 67.3155 23.5623L65.0118 18.0096C64.1846 16.0196 63.1771 14.111 61.9531 12.3467C60.0281 9.57699 57.8868 7.47932 55.4233 5.94874L55.3898 5.92773C54.9929 6.06425 54.5755 6.21652 54.1374 6.3898C51.0323 7.61584 49.0068 9.35908 49.0068 9.35908L49.2594 11.1023L54.7069 13.0398Z" fill="#2178D4"/>
<path d="M59.3969 4.9068C59.3969 4.9068 58.3121 5.03807 56.5753 5.55001L59.4382 7.44027C59.4717 7.4219 59.5026 7.40352 59.5361 7.38776C60.4406 6.89682 61.2342 6.21423 61.8398 5.37149C62.0692 5.05119 62.2238 4.77553 62.1851 4.64951C62.0588 4.26096 53.6299 0 53.6299 0C53.6299 0 56.4825 4.26096 59.3969 4.9068Z" fill="#2178D4"/>
<path d="M110.704 20.7191H107.751V18.3327C107.751 16.7574 106.514 15.4736 104.994 15.4736H104.721V29.4064H110.176C111.681 29.4064 112.861 29.1124 113.688 28.5296C114.683 27.784 115.185 26.6078 115.185 25.0299C115.185 23.6175 114.773 22.528 113.964 21.7955C113.173 21.0814 112.078 20.7191 110.704 20.7191ZM112.274 25.0641V25.1875C112.274 25.5498 112.274 26.5159 109.88 26.5159H107.751V23.6411H110.204C111.428 23.6411 111.823 23.8748 111.933 23.9772C112.16 24.1793 112.274 24.5443 112.274 25.0641Z" fill="#2178D4"/>
<path d="M94.0322 18.3747V20.2649C94.0322 22.0607 94.0348 23.6123 93.607 24.6913C92.9138 26.4424 92.2103 26.894 91.5893 27.2904L91.293 27.482L92.2052 29.9971L92.4423 29.9367C92.5531 29.9079 95.1712 29.2148 96.4751 25.4789C96.9389 24.1478 97.0033 22.2812 97.0033 20.4592V18.456H100.111V29.4353H103.051V15.4736H96.8255C95.2846 15.4736 94.0322 16.7758 94.0322 18.3747Z" fill="#2178D4"/>
<path d="M113.782 18.3353H116.711V29.409H119.654V18.3353H123.267V15.4736H112.699L113.782 18.3353Z" fill="#2178D4"/>
<path d="M133.997 19.6981C133.997 18.3015 133.497 17.2277 132.51 16.5031C131.582 15.8231 130.397 15.4766 128.987 15.4766C127.5 15.4766 126.287 15.8047 125.38 16.4532C124.408 17.1463 123.916 18.1544 123.918 19.4697L123.991 20.3624H126.918V19.79C126.918 19.1101 127.067 18.8764 127.171 18.7819C127.289 18.6585 127.714 18.3697 129.077 18.3697C129.593 18.3697 130.039 18.5115 130.438 18.8003C130.781 19.0497 130.94 19.3647 130.94 19.79V20.7194H128.016C126.645 20.7194 125.547 21.0817 124.759 21.7984C123.947 22.5335 123.537 23.6204 123.537 25.0329C123.537 26.6107 124.042 27.7869 125.042 28.5377C125.864 29.1153 127.044 29.4094 128.549 29.4094H134.004L133.997 19.6981ZM130.969 23.6414V26.5162H128.84C126.446 26.5162 126.446 25.5501 126.446 25.1878V25.0644C126.446 24.5446 126.56 24.1796 126.787 23.9775C126.9 23.8777 127.294 23.6414 128.516 23.6414H130.969Z" fill="#2178D4"/>
<path d="M84.0597 9.04688H79.1585L72.5771 29.4801L76.2363 29.4643C76.2363 29.4643 77.3779 26.9938 79.4084 25.0642C81.6941 22.893 84.588 21.9873 84.588 21.9873L87.0386 29.4538H90.7132L84.0597 9.04688ZM80.8747 20.5302C79.0374 21.6119 78.3828 22.3181 78.3828 22.3181L81.4055 12.3732H81.7328L83.735 19.1545C83.7324 19.1571 82.712 19.4486 80.8747 20.5302Z" fill="#2178D4"/>
</g>
<defs>
<clipPath id="clip0_1018_20360">
<rect width="90" height="30" fill="white" transform="translate(44)"/>
</clipPath>
</defs>
</svg>
