<svg width="20" height="20" viewBox="0 0 20 20" fill="none" xmlns="http://www.w3.org/2000/svg">
<path d="M12.9923 12.5865C13.3853 12.7175 13.81 12.5051 13.941 12.1122C14.072 11.7192 13.8596 11.2945 13.4667 11.1635L12.9923 12.5865ZM10.417 10.9375H9.66699C9.66699 11.2603 9.87356 11.5469 10.1798 11.649L10.417 10.9375ZM11.167 7.01739C11.167 6.60318 10.8312 6.26739 10.417 6.26739C10.0028 6.26739 9.66699 6.60318 9.66699 7.01739H11.167ZM13.2295 11.875L13.4667 11.1635L10.6542 10.226L10.417 10.9375L10.1798 11.649L12.9923 12.5865L13.2295 11.875ZM10.417 10.9375H11.167V7.01739H10.417H9.66699V10.9375H10.417ZM17.917 10H17.167C17.167 13.7279 14.1449 16.75 10.417 16.75V17.5V18.25C14.9733 18.25 18.667 14.5563 18.667 10H17.917ZM10.417 17.5V16.75C6.68907 16.75 3.66699 13.7279 3.66699 10H2.91699H2.16699C2.16699 14.5563 5.86064 18.25 10.417 18.25V17.5ZM2.91699 10H3.66699C3.66699 6.27208 6.68907 3.25 10.417 3.25V2.5V1.75C5.86064 1.75 2.16699 5.44365 2.16699 10H2.91699ZM10.417 2.5V3.25C14.1449 3.25 17.167 6.27208 17.167 10H17.917H18.667C18.667 5.44365 14.9733 1.75 10.417 1.75V2.5Z" fill="#68727D"/>
</svg>
