<svg width="24" height="24" viewBox="0 0 24 24" fill="none" xmlns="http://www.w3.org/2000/svg">
<path d="M23.4982 6.49806C23.3625 6.01493 23.0951 5.57399 22.7227 5.21937C22.3503 4.86476 21.8861 4.6089 21.3764 4.47742C19.5 4 12 4 12 4C12 4 4.5 4 2.62364 4.47742C2.11393 4.6089 1.64966 4.86476 1.27729 5.21937C0.904916 5.57399 0.637506 6.01493 0.501818 6.49806C5.96046e-08 8.28129 0 12 0 12C0 12 5.96046e-08 15.7187 0.501818 17.5019C0.637506 17.9851 0.904916 18.426 1.27729 18.7806C1.64966 19.1352 2.11393 19.3911 2.62364 19.5226C4.5 20 12 20 12 20C12 20 19.5 20 21.3764 19.5226C21.8861 19.3911 22.3503 19.1352 22.7227 18.7806C23.0951 18.426 23.3625 17.9851 23.4982 17.5019C24 15.7187 24 12 24 12C24 12 24 8.28129 23.4982 6.49806Z" fill="#BBC0C6"/>
<path d="M9.52637 15.999V8.87598L15.7866 12.4375L9.52637 15.999Z" fill="#FEFEFE"/>
</svg>
