<svg width="102" height="100" viewBox="0 0 102 100" fill="none" xmlns="http://www.w3.org/2000/svg">
<path fill-rule="evenodd" clip-rule="evenodd" d="M77.7215 6.67576C78.9292 5.42188 80.8755 4.88313 80.8755 4.88313C80.8755 4.88313 78.9072 4.39685 77.6463 3.17607C76.3854 1.95528 75.832 0 75.832 0C75.832 0 75.3629 1.96899 74.1552 3.22286C72.9476 4.47674 71.0013 5.01549 71.0013 5.01549C71.0013 5.01549 72.9696 5.50177 74.2304 6.72256C75.4913 7.94334 76.0447 9.89862 76.0447 9.89862C76.0447 9.89862 76.5138 7.92963 77.7215 6.67576Z" fill="#BBC0C6"/>
<path fill-rule="evenodd" clip-rule="evenodd" d="M9.22812 52.1711C10.8208 50.5175 13.3875 49.807 13.3875 49.807C13.3875 49.807 10.7918 49.1657 9.12896 47.5558C7.46616 45.9458 6.73633 43.3672 6.73633 43.3672C6.73633 43.3672 6.11769 45.9639 4.525 47.6175C2.93231 49.2711 0.365573 49.9816 0.365573 49.9816C0.365573 49.9816 2.96135 50.6229 4.62416 52.2328C6.28696 53.8428 7.01679 56.4214 7.01679 56.4214C7.01679 56.4214 7.63543 53.8247 9.22812 52.1711Z" fill="#BBC0C6"/>
<path fill-rule="evenodd" clip-rule="evenodd" d="M92.3579 69.2971C94.0399 67.5509 96.7504 66.8006 96.7504 66.8006C96.7504 66.8006 94.0092 66.1233 92.2532 64.4232C90.4973 62.7231 89.7266 60 89.7266 60C89.7266 60 89.0733 62.7422 87.3914 64.4884C85.7094 66.2346 82.9989 66.9849 82.9989 66.9849C82.9989 66.9849 85.7401 67.6621 87.4961 69.3623C89.252 71.0624 90.0227 73.7855 90.0227 73.7855C90.0227 73.7855 90.676 71.0433 92.3579 69.2971Z" fill="#BBC0C6"/>
<path d="M38.5918 69.2539C40.7116 69.254 42.4304 70.972 42.4307 73.0918C42.4307 75.2118 40.7118 76.9306 38.5918 76.9307C36.4718 76.9307 34.7529 75.2118 34.7529 73.0918C34.7532 70.972 36.4719 69.2539 38.5918 69.2539ZM62.9033 69.2539C65.0232 69.2539 66.7419 70.972 66.7422 73.0918C66.7422 75.2118 65.0233 76.9306 62.9033 76.9307C60.7833 76.9307 59.0645 75.2118 59.0645 73.0918C59.0647 70.972 60.7834 69.2539 62.9033 69.2539ZM25.0967 23.1211C25.9418 23.1211 26.6879 23.6738 26.9336 24.4824L28.5996 29.6006H73.0801C73.6458 29.6006 74.1832 29.8507 74.5479 30.2832C74.9124 30.7157 75.0682 31.2872 74.9727 31.8447L71.1338 54.2363C70.9917 55.065 70.3266 55.7053 69.4932 55.8154L37.2529 60.0732V62.8691H67.9619C69.0219 62.8691 69.8818 63.0894 69.8818 64.1494C69.8816 65.209 69.0218 65.4287 67.9619 65.4287L35.333 66.708C34.2733 66.7078 33.4142 65.8488 33.4141 64.7891V58.6758L23.6738 26.96L17.4189 26.3203C16.3591 26.3201 15.5 25.5423 15.5 24.4824C15.5003 23.4229 16.3593 23.1212 17.4189 23.1211H25.0967ZM36.6973 56.2744L43.2979 55.4023V45.2764H33.3584L36.6973 56.2744ZM45.2178 55.1484L56.0938 53.7119V45.2764H45.2178V55.1484ZM58.0127 53.458L67.5889 52.1943L68.7744 45.2764H58.0127V53.458ZM32.7754 43.3564H43.2979V33.4395H29.7646L32.7754 43.3564ZM45.2178 43.3564H56.0938V33.4395H45.2178V43.3564ZM58.0127 43.3564H69.1035L70.8037 33.4395H58.0127V43.3564Z" fill="#BBC0C6"/>
</svg>
