<svg width="16" height="24" viewBox="0 0 16 24" fill="none" xmlns="http://www.w3.org/2000/svg">
<path d="M3.75774 7.75774C3.36721 8.14826 3.36721 8.78143 3.75774 9.17195L6.58616 12.0004L3.75774 14.8288C3.36721 15.2193 3.36721 15.8525 3.75774 16.243C4.14826 16.6335 4.78143 16.6335 5.17195 16.243L8.00038 13.4146L10.8288 16.243C11.2193 16.6335 11.8525 16.6335 12.243 16.243C12.6335 15.8525 12.6335 15.2193 12.243 14.8288L9.41459 12.0004L12.243 9.17195C12.6335 8.78143 12.6335 8.14826 12.243 7.75774C11.8525 7.36721 11.2193 7.36721 10.8288 7.75774L8.00038 10.5862L5.17195 7.75774C4.78143 7.36721 4.14826 7.36721 3.75774 7.75774Z" fill="#89929D"/>
</svg>
